<?xml version="1.0" ?><!DOCTYPE svg  PUBLIC '-//W3C//DTD SVG 1.1//EN'  'http://www.w3.org/Graphics/SVG/1.1/DTD/svg11.dtd'><svg enable-background="new 0 0 64 64" height="64px" version="1.1" viewBox="0 0 64 64" width="64px" xml:space="preserve" xmlns="http://www.w3.org/2000/svg" xmlns:xlink="http://www.w3.org/1999/xlink"><g id="research_x2C__biology_x2C__Corona_virus_x2C__Covid-19_x2C__microscope"><g id="research"><g id="biology_1_"><g id="XMLID_470_"><path d="M45.422,22.554c0.257,0.289,0.314,0.729,0.178,1.091c5.444,1.74,9.4,6.841,9.4,12.855v15.833h1V36.5      C56,29.865,51.516,24.271,45.422,22.554z" fill="#000000"/><path d="M43.653,30.095c-0.043,0.352-0.245,0.67-0.613,0.796C45.395,32.157,47,34.644,47,37.5v14.833h1V37.5      C48,34.322,46.242,31.554,43.653,30.095z" fill="#000000"/></g><g id="XMLID_476_"><g id="XMLID_483_"><g id="XMLID_484_"><path d="M43,48H22v-4h21V48z M23,47h19v-2H23V47z" fill="#000000" id="XMLID_485_"/></g></g></g><g id="XMLID_488_"><g id="XMLID_489_"><g id="XMLID_490_"><path d="M48,46h-6v-1h6V46z" fill="#37474F" id="XMLID_491_"/></g></g></g><g id="XMLID_494_"><g id="XMLID_504_"><g id="XMLID_505_"><path d="M38.031,13.131l1.248-5.09C38.931,8,38.603,7.93,38.299,7.83l-1.229,5.016        C37.414,12.91,37.733,13.007,38.031,13.131z" fill="#37474F"/><path d="M42.931,14.143l1.18-4.816c-0.354-0.008-0.689-0.042-1.002-0.108L41.961,13.9        C42.306,13.952,42.63,14.033,42.931,14.143z" fill="#37474F"/></g></g></g><g id="XMLID_524_"><g id="XMLID_531_"><g id="XMLID_532_"><path d="M35.119,41.695l-3.675-0.89l-0.025-5.149l6.099,1.495L35.119,41.695z M32.44,40.017        l2.157,0.521l1.438-2.723l-3.61-0.885L32.44,40.017z" fill="#37474F" id="XMLID_533_"/></g></g></g><g id="XMLID_536_"><g id="XMLID_540_"><g id="XMLID_541_"><path d="M44.94,10.14l-7.77-1.904l0.951-3.885l7.771,1.904L44.94,10.14z M38.378,7.502        l5.83,1.428l0.476-1.943l-5.828-1.427L38.378,7.502z" fill="#37474F" id="XMLID_542_"/></g></g><g id="XMLID_548_"><g id="XMLID_549_"><path d="M44.94,10.14l-7.77-1.904l0.951-3.885l7.771,1.904L44.94,10.14z M38.378,7.502        l5.83,1.428l0.476-1.943l-5.828-1.427L38.378,7.502z" fill="#37474F" id="XMLID_550_"/></g></g></g><path d="M39.527,32.238l-1.236,5.048l-7.771-1.904l5.462-22.291l7.77,1.904l-1.138,4.645     c0.33,0.061,0.653,0.147,0.967,0.256l1.38-5.634l-9.713-2.38L29.31,36.115l9.714,2.381l1.479-6.039     C40.17,32.41,39.845,32.335,39.527,32.238z" fill="#37474F"/><g id="XMLID_553_"><g id="XMLID_557_"><g id="XMLID_558_"><path d="M41.071,31.517c-3.026-0.199-5.326-2.824-5.127-5.849        c0.199-3.026,2.823-5.326,5.851-5.127c3.026,0.199,5.325,2.823,5.126,5.849S44.099,31.716,41.071,31.517z M41.729,21.539        c-2.476-0.163-4.623,1.719-4.786,4.195c-0.162,2.476,1.719,4.623,4.194,4.786c2.477,0.163,4.624-1.719,4.786-4.195        C46.086,23.848,44.205,21.702,41.729,21.539z" fill="#37474F" id="XMLID_559_"/></g></g></g><g id="XMLID_562_"><g id="XMLID_566_"><g id="XMLID_567_"><path d="M41.235,29.022c-1.65-0.109-2.904-1.541-2.796-3.19        c0.108-1.651,1.539-2.905,3.191-2.797c1.649,0.109,2.904,1.54,2.795,3.19C44.318,27.876,42.887,29.131,41.235,29.022z         M41.564,24.033c-1.101-0.073-2.055,0.764-2.128,1.864c-0.072,1.101,0.764,2.054,1.864,2.127        c1.102,0.073,2.055-0.764,2.128-1.864C43.501,25.06,42.666,24.106,41.564,24.033z" fill="#37474F" id="XMLID_568_"/></g></g></g><g id="XMLID_571_"><g id="XMLID_579_"><g id="XMLID_580_"><path d="M59,58H17v-0.5c0-3.032,2.467-5.5,5.5-5.5h32c4.186,0,4.402,4.12,4.473,5.474L59,58z         M18.027,57h39.909c-0.251-2.797-1.298-4-3.437-4h-32C20.188,53,18.277,54.753,18.027,57z" fill="#000000" id="XMLID_581_"/></g></g></g></g><g id="XMLID_469_"><path d="M27,38.151l-5.16-7.74C20.581,30.802,19.292,31,18,31c-7.168,0-13-5.832-13-13     S10.832,5,18,5s13,5.832,13,13c0,3.516-1.455,6.916-4,9.363V38.151z M22.247,29.221L26,34.849V26.93l0.159-0.148     C28.636,24.479,30,21.36,30,18c0-6.617-5.383-12-12-12S6,11.383,6,18s5.383,12,12,12c1.308,0,2.614-0.22,3.883-0.655     L22.247,29.221z" fill="#000000" id="XMLID_586_"/></g></g><g id="XMLID_468_"><g><g><path d="M14.364,24.614l0.906,0.423l1.089-2.334c-0.319-0.112-0.621-0.251-0.907-0.421L14.364,24.614z" fill="#000000"/><path d="M21.834,10.961l-0.906-0.423l-1.287,2.76c0.319,0.111,0.621,0.251,0.907,0.421L21.834,10.961z" fill="#000000"/><path d="M25.211,15.971l-0.338-0.941l-2.361,0.849c0.142,0.3,0.254,0.614,0.334,0.943L25.211,15.971z" fill="#000000"/><path d="M10.313,20.266l0.338,0.941l2.866-1.031c-0.146-0.298-0.261-0.611-0.345-0.939L10.313,20.266z" fill="#000000"/><path d="M25.461,20.928l-2.759-1.287c-0.111,0.319-0.251,0.621-0.422,0.907l2.759,1.286L25.461,20.928z" fill="#000000"/><path d="M10.96,14.166l-0.422,0.906l2.76,1.287c0.111-0.319,0.251-0.621,0.421-0.907L10.96,14.166z" fill="#000000"/><path d="M15.733,10.312l-0.939,0.342l1.04,2.858c0.299-0.145,0.611-0.259,0.939-0.342L15.733,10.312z" fill="#000000"/><path d="M20.267,25.688l0.939-0.342l-1.04-2.858c-0.299,0.145-0.611,0.259-0.939,0.342L20.267,25.688z" fill="#000000"/></g><path d="M18,23.5c-3.032,0-5.5-2.467-5.5-5.5s2.468-5.5,5.5-5.5s5.5,2.467,5.5,5.5S21.032,23.5,18,23.5z M18,13.5     c-2.481,0-4.5,2.019-4.5,4.5s2.019,4.5,4.5,4.5s4.5-2.019,4.5-4.5S20.481,13.5,18,13.5z" fill="#000000"/></g><rect fill="#000000" height="1" id="XMLID_606_" width="1" x="17" y="16"/><rect fill="#000000" height="1" id="XMLID_607_" width="1" x="20" y="18"/><rect fill="#000000" height="1" id="XMLID_608_" width="1" x="16" y="19"/></g></g></svg>